<?xml version="1.0" encoding="UTF-8" standalone="no"?>
<svg xmlns="http://www.w3.org/2000/svg" height="1.0537in" width="5.0796in" version="1.1" viewBox="0 0 457.16675 94.834059">
<path style="color-rendering:auto;fill-opacity:.50196;color:#000000;isolation:auto;mix-blend-mode:normal;shape-rendering:auto;solid-color:#000000;image-rendering:auto;stroke-width:.14656;fill:#c0c0c0" d="m75.73 91.034-29.004-15.809-29.414 15.19 6.011-32.772-23.323-23.502 32.719-4.437 14.997-29.708 14.211 30.022 32.593 5.14-23.936 22.993z"/>
<g aria-label="Flask App" style="color-rendering:auto;text-decoration-color:#000000;color:#000000;isolation:auto;mix-blend-mode:normal;fill-opacity:.50196;shape-rendering:auto;solid-color:#000000;text-decoration-line:none;image-rendering:auto;white-space:normal;text-indent:0;text-transform:none;text-decoration-style:solid;fill:#c0c0c0">
<path style="stroke-width:1.1746px;fill:#c0c0c0;fill-opacity:.50196" d="m110.29 73.648 5.556-1.0754v-37.459l-5.556-1.0754v-6.309h41.545v14.302h-8.0293l-0.46599-6.2371h-17.026v14.374h18.281v8.0652h-18.281v14.338l5.5918 1.0754v6.2729h-21.615z"/>
<path style="stroke-width:1.1746px;fill:#c0c0c0;fill-opacity:.50196" d="m154.74 30.311v-6.3088h16.059v48.57l5.0542 1.0754v6.2729h-20.575v-6.2729l5.0542-1.0754v-41.186z"/>
<path style="stroke-width:1.1746px;fill:#c0c0c0;fill-opacity:.50196" d="m203.92 79.921q-0.43014-0.96782-0.75275-1.9715-0.32261-1.0395-0.50183-2.079-1.864 2.1507-4.5523 3.477-2.6526 1.3263-6.0937 1.3263-5.6994 0-9.0688-3.0827-3.3336-3.1185-3.3336-8.4595 0-5.4485 4.3731-8.4236 4.3731-2.9752 12.833-2.9752h5.3409v-3.7996q0-2.7959-1.613-4.3373-1.613-1.5413-4.7674-1.5413-1.7923 0-3.1902 0.43014-1.398 0.3943-2.2582 0.96782l-0.68106 4.158h-7.8859l0.0358-8.6029q2.8676-1.9356 6.5597-3.2619 3.7279-1.3263 8.101-1.3263 7.2049 0 11.686 3.5487 4.5165 3.5128 4.5165 10.037v16.023q0 0.89613 0 1.6847 0.0359 0.7886 0.14338 1.5055l3.1902 0.43014v6.2729zm-9.0688-6.9898q2.3658 0 4.3014-1.0037 1.9356-1.0395 3.011-2.5809v-5.9145h-5.3409q-3.3336 0-5.0542 1.5772-1.7206 1.5413-1.7206 3.7279 0 1.9715 1.2546 3.0827 1.2904 1.1112 3.5487 1.1112z"/>
<path style="stroke-width:1.1746px;fill:#c0c0c0;fill-opacity:.50196" d="m251.16 54.471h-7.0257l-1.1112-4.8391q-1.0754-0.86028-2.7242-1.4338-1.613-0.57352-3.5845-0.57352-2.7601 0-4.3731 1.2546-1.613 1.2187-1.613 3.0827 0 1.7564 1.5414 2.9393 1.5413 1.147 6.1654 2.0432 7.2049 1.4338 10.682 4.2297 3.477 2.7601 3.477 7.635 0 5.2334-4.5165 8.567-4.4806 3.2978-11.829 3.2978-4.4807 0-8.2444-1.2904-3.7279-1.3263-6.6314-3.7637l-0.10753-8.7104h7.3124l1.4338 5.0542q0.93197 0.7886 2.545 1.1829 1.613 0.35845 3.3694 0.35845 3.1902 0 4.8391-1.147 1.6847-1.147 1.6847-3.1185 0-1.7206-1.6847-2.9752t-6.2012-2.2224q-6.8464-1.398-10.359-4.1222-3.477-2.7601-3.477-7.4916 0-4.875 4.0147-8.3878 4.0147-3.5487 11.435-3.5487 4.5165 0 8.5312 1.2187 4.0505 1.2187 6.3446 3.1185z"/>
<path style="stroke-width:1.1746px;fill:#c0c0c0;fill-opacity:.50196" d="m256.25 30.311v-6.3088h16.023v32.404h2.3299l6.022-8.4953-3.4053-0.46599v-6.3088h19.07v6.3088l-4.5882 1.0395-6.9898 9.6065 9.7857 14.732 3.9788 0.82444v6.2729h-17.923v-6.2729l2.1507-0.35845-5.9503-9.6065h-4.4806v8.8896l4.5165 1.0754v6.2729h-20.002v-6.2729l5.0542-1.0754v-41.186z"/>
<path style="stroke-width:1.1746px;fill:#c0c0c0;fill-opacity:.50196" d="m319.38 73.648 3.7279-0.53768 15.879-45.38h10.718l15.772 45.38 3.7279 0.53768v6.2729h-17.779v-6.2729l3.6204-0.64521-2.2941-7.169h-16.919l-2.2941 7.169 3.6204 0.64521v6.2729h-17.779zm18.926-15.521h11.972l-5.8786-18.389h-0.21507z"/>
<path style="stroke-width:1.1746px;fill:#c0c0c0;fill-opacity:.50196" d="m372.14 47.445v-6.3088h15.198l0.50183 4.5165q1.7206-2.5092 4.1222-3.8713t5.5919-1.3621q7.2049 0 11.184 5.6277 3.9788 5.6277 3.9788 14.804v0.75275q0 8.6029-3.9788 13.836-3.9788 5.2334-11.112 5.2334-3.0468 0-5.4126-1.1112-2.3658-1.147-4.0505-3.3336v11.221l5.0542 1.0754v6.3088h-20.539v-6.3088l5.0542-1.0754v-38.928zm30.11 13.406q0-5.4843-1.8281-8.8896t-5.5918-3.4053q-2.3658 0-4.0505 0.96782-1.6489 0.96782-2.6167 2.7601v16.991q0.96782 1.6489 2.6167 2.5092 1.6847 0.86028 4.1222 0.86028 3.7996 0 5.556-2.9752 1.7923-2.9752 1.7923-8.0652z"/>
<path style="stroke-width:1.1746px;fill:#c0c0c0;fill-opacity:.50196" d="m416.59 47.445v-6.3088h15.198l0.50183 4.5165q1.7206-2.5092 4.1222-3.8713t5.5919-1.3621q7.2049 0 11.184 5.6277 3.9788 5.6277 3.9788 14.804v0.75275q0 8.6029-3.9788 13.836-3.9788 5.2334-11.112 5.2334-3.0468 0-5.4126-1.1112-2.3658-1.147-4.0505-3.3336v11.221l5.0542 1.0754v6.3088h-20.539v-6.3088l5.0542-1.0754v-38.928zm30.11 13.406q0-5.4843-1.8281-8.8896t-5.5918-3.4053q-2.3658 0-4.0505 0.96782-1.6489 0.96782-2.6167 2.7601v16.991q0.96782 1.6489 2.6167 2.5092 1.6847 0.86028 4.1222 0.86028 3.7996 0 5.556-2.9752 1.7923-2.9752 1.7923-8.0652z"/>
</g>
</svg>
